<svg width="213" height="48" viewBox="0 0 213 48" fill="none" xmlns="http://www.w3.org/2000/svg">
<rect width="48" height="48" rx="4" fill="#6200EE"/>
<path d="M21.8671 9.94012C22.2144 10.1721 23.2098 10.6592 24.4136 10.752C24.6057 10.7668 24.8223 10.7854 25.0578 10.8056C26.666 10.9436 29.1493 11.1567 30.6638 10.752C32.4 10.2881 32.7473 10.2881 33.0945 11.7959C33.2032 12.2676 33.4251 12.5918 33.6044 12.8536C33.9981 13.4286 34.1859 13.7028 32.5158 14.5795C31.1069 15.319 30.1953 15.4487 29.5324 15.543C29.3529 15.5686 29.1914 15.5915 29.0434 15.6233C27.4229 15.9713 31.0111 16.4352 33.0945 15.2754C33.5202 15.0039 33.8165 14.7584 34.0397 14.5735C34.4839 14.2054 34.6383 14.0775 34.9464 14.4635C35.0569 14.6018 35.2858 14.7929 35.5799 15.0384C36.5188 15.8221 38.1215 17.1598 38.6503 19.1028C39.251 21.3098 39.1649 22.6148 37.7023 23.9544C37.6836 24.6529 37.7441 25.4759 37.7861 26.0466C37.8075 26.3385 37.8241 26.5644 37.8228 26.6739C37.8186 27.0259 37.3502 27.1719 36.7182 27.369C36.5173 27.4316 36.2999 27.4994 36.0755 27.5806C35.6616 27.7305 35.4319 27.8136 35.2444 27.7568C35.0107 27.6859 34.8426 27.3974 34.465 26.7491C34.2813 26.4337 33.9924 26.1483 33.6745 25.8939C33.3005 26.012 32.8974 26.153 32.4537 26.3402C32.5255 26.8921 32.6659 27.5178 32.7644 27.9569C32.8167 28.1905 32.8573 28.3713 32.8694 28.46C32.9082 28.7453 32.5468 28.9199 32.059 29.1555C31.904 29.2304 31.7362 29.3115 31.5644 29.4043C31.2475 29.5754 31.0716 29.6704 30.9131 29.647C30.7154 29.6178 30.5448 29.4046 30.1615 28.9256C29.9288 28.6348 29.5693 28.4015 29.2027 28.2095C28.3426 28.8229 27.3723 29.5971 26.2655 30.5852C25.5838 31.1938 24.91 31.7652 24.2451 32.2977C24.2443 32.6854 24.2799 33.1003 24.432 33.4441C24.8472 34.3823 24.8472 34.3823 24.2445 34.6881C24.0992 34.7618 23.965 34.8388 23.841 34.9099C23.4507 35.1337 23.1613 35.2996 22.9465 35.1239C22.8797 35.0693 22.7501 34.9467 22.5827 34.7883C22.3733 34.5902 22.1047 34.3361 21.8256 34.0888C21.0152 34.6372 20.2205 35.1207 19.4433 35.5361C19.4489 35.758 19.4776 35.9789 19.5459 36.1829C19.7311 36.7359 19.8096 36.9702 19.7272 37.108C19.6666 37.2093 19.5189 37.2584 19.2627 37.3435C19.1168 37.392 18.9814 37.4452 18.8562 37.4944C18.4625 37.6491 18.1707 37.7638 17.9787 37.5633C17.919 37.501 17.8046 37.3642 17.6567 37.1874C17.5114 37.0136 17.3338 36.8012 17.1441 36.5829C16.2683 36.9079 15.4193 37.1331 14.5999 37.2533L14.5995 37.2639C14.5649 38.2728 14.5649 38.2728 13.9368 38.2412C13.7853 38.2336 13.6417 38.2341 13.5091 38.2346C13.0918 38.2363 12.7825 38.2375 12.6743 37.9817C12.6407 37.9022 12.5823 37.7336 12.5068 37.5158C12.4851 37.4532 12.4619 37.3863 12.4376 37.3165C11.5629 37.23 10.7308 36.9993 9.9453 36.6164C8.78784 35.8045 9.48231 34.2967 11.2185 32.441C12.9547 30.5852 15.0381 28.2656 15.2696 27.9176C15.5689 27.4678 15.7822 27.5349 16.5765 27.7848C16.7037 27.8248 16.8459 27.8695 17.0058 27.9176C17.7003 28.1264 22.3301 28.9615 25.3395 21.8864C25.5314 21.3096 25.3735 21.5096 24.6149 22.4704C24.4583 22.6687 24.2762 22.8993 24.0663 23.1623C21.2884 26.6418 19.0892 27.4537 16.4271 26.2938C16.2961 26.2501 16.4287 26.1238 16.7067 25.8589C17.1658 25.4216 18.0212 24.6068 18.742 23.1623C19.1664 22.3504 20.1309 20.2859 20.5939 18.5229C20.8054 17.7177 20.7851 16.1539 20.7644 14.5667C20.7286 11.81 20.6919 8.98324 21.8671 9.94012Z" fill="white"/>
<path d="M59.52 11.205H63.426L72.39 29.565L81.354 11.205H85.26V37.125H81.21V20.511L73.254 37.125H71.526L63.588 20.511V37.125H59.52V11.205Z" fill="#6200EE"/>
<path d="M104.915 20.763C105.227 21.387 105.425 22.035 105.509 22.707C105.605 23.367 105.653 24.195 105.653 25.191V37.125H101.855V34.515C101.027 35.607 100.067 36.405 98.9748 36.909C97.8828 37.413 96.5688 37.665 95.0328 37.665C93.6648 37.665 92.4888 37.407 91.5048 36.891C90.5328 36.363 89.7888 35.655 89.2728 34.767C88.7688 33.879 88.5168 32.889 88.5168 31.797C88.5168 30.369 88.8708 29.175 89.5788 28.215C90.2988 27.255 91.4208 26.511 92.9448 25.983C93.7968 25.707 94.7748 25.473 95.8788 25.281C96.9948 25.077 98.5848 24.819 100.649 24.507L101.405 24.399C101.321 23.271 100.961 22.443 100.325 21.915C99.7008 21.387 98.7348 21.123 97.4268 21.123C96.4668 21.123 95.5908 21.345 94.7988 21.789C94.0188 22.233 93.4788 22.917 93.1788 23.841L89.2188 22.599C89.7108 20.895 90.6468 19.563 92.0268 18.603C93.4068 17.631 95.2068 17.145 97.4268 17.145C99.2268 17.145 100.769 17.439 102.053 18.027C103.349 18.615 104.303 19.527 104.915 20.763ZM100.919 30.987C101.183 30.351 101.327 29.343 101.351 27.963C99.4668 28.263 98.1108 28.491 97.2828 28.647C96.4668 28.791 95.7468 28.971 95.1228 29.187C94.3428 29.475 93.7548 29.823 93.3588 30.231C92.9628 30.639 92.7648 31.143 92.7648 31.743C92.7648 32.475 93.0348 33.069 93.5748 33.525C94.1268 33.981 94.9008 34.209 95.8968 34.209C96.8208 34.209 97.6308 34.047 98.3268 33.723C99.0348 33.387 99.6048 32.973 100.037 32.481C100.469 31.989 100.763 31.491 100.919 30.987Z" fill="#6200EE"/>
<path d="M126.791 11.205V37.125H122.957V35.685C121.505 37.005 119.657 37.665 117.413 37.665C115.661 37.665 114.107 37.221 112.751 36.333C111.407 35.433 110.369 34.209 109.637 32.661C108.905 31.101 108.539 29.349 108.539 27.405C108.539 25.437 108.911 23.679 109.655 22.131C110.399 20.571 111.455 19.353 112.823 18.477C114.191 17.589 115.775 17.145 117.575 17.145C119.447 17.145 121.061 17.643 122.417 18.639V11.205H126.791ZM118.079 33.777C119.747 33.777 120.977 33.213 121.769 32.085C122.561 30.945 122.957 29.385 122.957 27.405C122.957 25.425 122.567 23.871 121.787 22.743C121.007 21.603 119.819 21.033 118.223 21.033C117.095 21.033 116.147 21.315 115.379 21.879C114.623 22.431 114.059 23.187 113.687 24.147C113.315 25.107 113.129 26.193 113.129 27.405C113.129 28.629 113.309 29.721 113.669 30.681C114.041 31.641 114.593 32.397 115.325 32.949C116.069 33.501 116.987 33.777 118.079 33.777Z" fill="#6200EE"/>
<path d="M131.118 11.205H135.51V27.045L142.62 17.685H148.038L140.496 27.405L148.686 37.125H142.944L135.51 27.765V37.125H131.082L131.118 11.205Z" fill="#6200EE"/>
<path d="M150.129 10.755H154.467V14.733H150.129V10.755ZM150.129 17.685H154.467V37.125H150.129V17.685Z" fill="#6200EE"/>
<path d="M167.581 37.665C165.625 37.665 163.927 37.227 162.487 36.351C161.059 35.463 159.967 34.245 159.211 32.697C158.455 31.137 158.071 29.373 158.059 27.405C158.059 25.425 158.449 23.661 159.229 22.113C160.009 20.553 161.119 19.335 162.559 18.459C164.011 17.583 165.703 17.145 167.635 17.145C169.099 17.145 170.425 17.397 171.613 17.901C172.801 18.405 173.791 19.125 174.583 20.061C175.387 20.985 175.939 22.083 176.239 23.355L171.919 24.525C171.595 23.493 171.037 22.683 170.245 22.095C169.465 21.507 168.577 21.213 167.581 21.213C165.949 21.213 164.719 21.777 163.891 22.905C163.075 24.033 162.661 25.533 162.649 27.405C162.661 29.313 163.087 30.825 163.927 31.941C164.767 33.045 165.985 33.597 167.581 33.597C168.709 33.597 169.609 33.345 170.281 32.841C170.953 32.325 171.463 31.551 171.811 30.519L176.239 31.509C175.639 33.489 174.589 35.013 173.089 36.081C171.589 37.137 169.753 37.665 167.581 37.665Z" fill="#6200EE"/>
<path d="M179.126 11.205H183.518V27.045L190.628 17.685H196.046L188.504 27.405L196.694 37.125H190.952L183.518 27.765V37.125H179.09L179.126 11.205Z" fill="#6200EE"/>
<path d="M204.931 37.665C202.531 37.665 200.581 37.125 199.081 36.045C197.581 34.965 196.669 33.447 196.345 31.491L200.773 30.807C200.989 31.779 201.487 32.541 202.267 33.093C203.059 33.633 204.049 33.903 205.237 33.903C206.269 33.903 207.073 33.699 207.649 33.291C208.225 32.871 208.513 32.301 208.513 31.581C208.513 31.113 208.399 30.753 208.171 30.501C207.955 30.249 207.517 30.003 206.857 29.763C206.197 29.511 205.099 29.181 203.563 28.773C201.919 28.341 200.617 27.879 199.657 27.387C198.709 26.883 198.025 26.295 197.605 25.623C197.185 24.939 196.975 24.105 196.975 23.121C196.975 21.921 197.287 20.871 197.911 19.971C198.547 19.071 199.441 18.375 200.593 17.883C201.757 17.391 203.101 17.145 204.625 17.145C206.125 17.145 207.463 17.379 208.639 17.847C209.815 18.315 210.763 18.987 211.483 19.863C212.215 20.727 212.659 21.735 212.815 22.887L208.387 23.679C208.267 22.851 207.883 22.197 207.235 21.717C206.599 21.237 205.753 20.967 204.697 20.907C203.677 20.859 202.855 21.021 202.231 21.393C201.607 21.753 201.295 22.257 201.295 22.905C201.295 23.301 201.421 23.625 201.673 23.877C201.937 24.129 202.435 24.387 203.167 24.651C203.899 24.903 205.045 25.227 206.605 25.623C208.177 26.031 209.419 26.487 210.331 26.991C211.255 27.495 211.921 28.101 212.329 28.809C212.749 29.505 212.959 30.363 212.959 31.383C212.959 32.679 212.635 33.801 211.987 34.749C211.351 35.685 210.427 36.405 209.215 36.909C208.015 37.413 206.587 37.665 204.931 37.665Z" fill="#6200EE"/>
</svg>
